<svg xmlns="http://www.w3.org/2000/svg" viewBox="0 0 400 300" role="img" aria-label="Mood and Memory">
  <defs>
    <linearGradient id="bg" x1="0" y1="0" x2="1" y2="1">
      <stop offset="0" stop-color="#EBD9FB"/>
      <stop offset="1" stop-color="#C4B5FD"/>
    </linearGradient>
  </defs>
  <rect width="400" height="300" fill="url(#bg)"/>
  <circle cx="320" cy="70" r="62" fill="#FCFAFF" opacity="0.22"/>
  <circle cx="80" cy="250" r="50" fill="#6D28D9" opacity="0.08"/>
  <g transform="translate(200,150)" fill="none" stroke="#6D28D9" stroke-width="8" stroke-linecap="round" stroke-linejoin="round">
    <path d="M 8,42 C 8,30 18,28 24,18 C 40,-8 22,-44 -8,-42 C -34,-40 -48,-14 -38,8 C -32,22 -24,24 -24,40"/>
    <path d="M -6,2 C -16,-6 -12,-20 -2,-16 C -1,-15 -1,-13 -1,-12 C -1,-13 -1,-15 0,-16 C 10,-20 14,-6 4,2 C 1,5 -3,5 -1,7 Z" fill="#6D28D9" stroke="none"/>
  </g>
</svg>
