<svg xmlns="http://www.w3.org/2000/svg" viewBox="0 0 400 300" role="img" aria-label="Sleep">
  <defs>
    <linearGradient id="bg" x1="0" y1="0" x2="1" y2="1">
      <stop offset="0" stop-color="#EBD9FB"/>
      <stop offset="1" stop-color="#C4B5FD"/>
    </linearGradient>
  </defs>
  <rect width="400" height="300" fill="url(#bg)"/>
  <circle cx="330" cy="60" r="70" fill="#FCFAFF" opacity="0.22"/>
  <circle cx="70" cy="255" r="55" fill="#6D28D9" opacity="0.08"/>
  <g transform="translate(200,150)">
    <path d="M 20,-38 A 38 38 0 1 0 28,34 A 28 28 0 1 1 20,-38 Z" fill="#6D28D9"/>
    <path d="M -36,-26 l 3.5,8 8,3.5 -8,3.5 -3.5,8 -3.5,-8 -8,-3.5 8,-3.5 z" fill="#6D28D9" opacity="0.8"/>
    <path d="M 40,38 l 2.5,6 6,2.5 -6,2.5 -2.5,6 -2.5,-6 -6,-2.5 6,-2.5 z" fill="#6D28D9" opacity="0.6"/>
  </g>
</svg>
